<?xml version="1.0" standalone="no"?>
<svg xmlns="http://www.w3.org/2000/svg" viewBox="0 0 184.992 36" width="184.992" height="36"><g fill="#fea701" color="#fea701" transform="translate(0 6.239999999999998) scale(0.5600001)"><svg width="50.0" height="42.0" x="0.0" y="0.0" viewBox="0 0 50 42"><path fill="currentColor" fill-rule="evenodd" d="M39.414 17.264v20.7H10.35V17.153c0-.048-.011-.093-.015-.14L24.882 4.829 39.439 17.02c-.01.081-.025.16-.025.244m9.711 3.21L26.03 1.132a1.787 1.787 0 0 0-2.294 0L.639 20.475a1.786 1.786 0 0 0 2.293 2.738l3.845-3.221V39.75c0 .986.8 1.785 1.786 1.785H41.2c.986 0 1.786-.799 1.786-1.785V19.992l3.845 3.22a1.784 1.784 0 0 0 2.516-.223 1.785 1.785 0 0 0-.22-2.514m-25.81 2.38a1.785 1.785 0 1 0 3.13 0 1.371 1.371 0 0 1 2.573.656c0 1.665-2.415 3.67-4.14 4.774-1.723-1.098-4.134-3.098-4.134-4.773a1.371 1.371 0 0 1 2.571-.657m-6.142.657c0 4.623 6.164 8.046 6.867 8.42a1.784 1.784 0 0 0 1.681 0c.703-.374 6.868-3.797 6.868-8.42a4.947 4.947 0 0 0-4.942-4.94 4.932 4.932 0 0 0-2.766.848 4.941 4.941 0 0 0-2.767-.848 4.947 4.947 0 0 0-4.941 4.94"></path></svg></g><path fill="#fe4e01" fill-rule="nonzero" d="M7.13 4.44Q10.25 4.44 12.18 5.77Q14.11 7.10 14.11 9.84L14.11 9.84L9.48 9.84Q9.48 7.68 7.13 7.68L7.13 7.68Q4.78 7.68 4.78 10.39L4.78 10.39L4.78 11.76Q4.78 14.45 7.22 14.45L7.22 14.45Q9.67 14.45 9.67 12.24L9.67 12.24L14.11 12.24Q14.11 15.00 12.18 16.34Q10.25 17.69 7.13 17.69L7.13 17.69Q3.79 17.69 1.90 16.01Q0 14.33 0 11.06L0 11.06Q0 7.80 1.90 6.12Q3.79 4.44 7.13 4.44L7.13 4.44ZM23.14 4.44Q26.47 4.44 28.38 6.13Q30.29 7.82 30.29 11.06L30.29 11.06Q30.29 14.30 28.38 16.00Q26.47 17.69 23.14 17.69L23.14 17.69Q19.80 17.69 17.90 16.01Q16.01 14.33 16.01 11.06L16.01 11.06Q16.01 7.80 17.90 6.12Q19.80 4.44 23.14 4.44L23.14 4.44ZM23.14 7.68Q20.78 7.68 20.78 10.39L20.78 10.39L20.78 11.76Q20.78 14.45 23.14 14.45L23.14 14.45Q25.51 14.45 25.51 11.76L25.51 11.76L25.51 10.39Q25.51 7.68 23.14 7.68L23.14 7.68ZM45.70 17.40L41.81 17.40L41.40 15.60Q40.01 17.69 37.37 17.69L37.37 17.69Q34.80 17.69 33.41 16.01Q32.02 14.33 32.02 11.04L32.02 11.04Q32.02 7.78 33.41 6.11Q34.80 4.44 37.37 4.44L37.37 4.44Q39.55 4.44 40.92 5.90L40.92 5.90L40.92 0L45.70 0L45.70 17.40ZM38.86 7.97Q36.79 7.97 36.79 10.44L36.79 10.44L36.79 11.71Q36.79 14.16 38.86 14.16L38.86 14.16Q39.91 14.16 40.44 13.42Q40.97 12.67 40.97 11.47L40.97 11.47L40.97 10.68Q40.97 9.48 40.44 8.72Q39.91 7.97 38.86 7.97L38.86 7.97ZM55.15 4.44Q58.63 4.44 60.47 6.07Q62.30 7.70 62.30 11.06L62.30 11.06L62.30 11.88L52.80 11.88Q52.80 13.25 53.41 13.94Q54.02 14.64 55.34 14.64L55.34 14.64Q56.54 14.64 57.11 14.14Q57.67 13.63 57.67 12.79L57.67 12.79L62.30 12.79Q62.30 15.10 60.55 16.39Q58.80 17.69 55.44 17.69L55.44 17.69Q51.91 17.69 49.97 16.04Q48.02 14.40 48.02 11.06L48.02 11.06Q48.02 7.80 49.92 6.12Q51.82 4.44 55.15 4.44L55.15 4.44ZM55.34 7.49Q53.09 7.49 52.82 9.62L52.82 9.62L57.48 9.62Q57.48 8.64 56.92 8.06Q56.35 7.49 55.34 7.49L55.34 7.49ZM70.22 12.70L64.10 12.70L64.10 8.90L70.22 8.90L70.22 12.70ZM77.38 6.05Q78.14 5.28 79.18 4.86Q80.21 4.44 81.34 4.44L81.34 4.44Q83.54 4.44 84.65 5.66Q85.75 6.89 85.75 9.19L85.75 9.19L85.75 17.40L80.98 17.40L80.98 9.77Q80.98 8.95 80.56 8.46Q80.14 7.97 79.37 7.97L79.37 7.97Q78.48 7.97 77.93 8.54Q77.38 9.12 77.38 9.96L77.38 9.96L77.38 17.40L72.60 17.40L72.60 0L77.38 0L77.38 6.05ZM95.16 4.44Q98.50 4.44 100.40 6.13Q102.31 7.82 102.31 11.06L102.31 11.06Q102.31 14.30 100.40 16.00Q98.50 17.69 95.16 17.69L95.16 17.69Q91.82 17.69 89.93 16.01Q88.03 14.33 88.03 11.06L88.03 11.06Q88.03 7.80 89.93 6.12Q91.82 4.44 95.16 4.44L95.16 4.44ZM95.16 7.68Q92.81 7.68 92.81 10.39L92.81 10.39L92.81 11.76Q92.81 14.45 95.16 14.45L95.16 14.45Q97.54 14.45 97.54 11.76L97.54 11.76L97.54 10.39Q97.54 7.68 95.16 7.68L95.16 7.68ZM117.72 17.40L113.81 17.40L113.50 15.48Q112.75 16.51 111.54 17.10Q110.33 17.69 108.98 17.69L108.98 17.69Q106.78 17.69 105.67 16.46Q104.57 15.24 104.57 12.94L104.57 12.94L104.57 4.73L109.34 4.73L109.34 12.36Q109.34 13.18 109.76 13.67Q110.18 14.16 110.95 14.16L110.95 14.16Q111.84 14.16 112.39 13.58Q112.94 13.01 112.94 12.17L112.94 12.17L112.94 4.73L117.72 4.73L117.72 17.40ZM126.65 4.44Q129.19 4.44 130.96 5.44Q132.72 6.43 132.72 8.52L132.72 8.52L128.28 8.52Q128.28 7.82 127.66 7.54L127.66 7.54Q127.22 7.30 126.58 7.30L126.58 7.30Q124.85 7.30 124.85 8.11L124.85 8.11Q124.85 8.57 125.45 8.76Q126.05 8.95 127.42 9.17L127.42 9.17Q129.10 9.41 130.22 9.73Q131.35 10.06 132.19 10.88Q133.03 11.71 133.03 13.20L133.03 13.20Q133.03 15.62 131.22 16.66Q129.41 17.69 126.48 17.69L126.48 17.69Q124.80 17.69 123.31 17.22Q121.82 16.75 120.89 15.77Q119.95 14.78 119.95 13.27L119.95 13.27L124.39 13.27L124.39 13.37Q124.42 14.18 125.08 14.51Q125.74 14.83 126.48 14.83L126.48 14.83Q128.47 14.83 128.47 13.90L128.47 13.90Q128.47 13.42 127.85 13.20Q127.22 12.98 125.81 12.74L125.81 12.74Q124.10 12.46 123.01 12.12Q121.92 11.78 121.10 10.98Q120.29 10.18 120.29 8.74L120.29 8.74Q120.29 6.41 122.05 5.42Q123.82 4.44 126.65 4.44L126.65 4.44ZM141.84 4.44Q145.32 4.44 147.16 6.07Q148.99 7.70 148.99 11.06L148.99 11.06L148.99 11.88L139.49 11.88Q139.49 13.25 140.10 13.94Q140.71 14.64 142.03 14.64L142.03 14.64Q143.23 14.64 143.80 14.14Q144.36 13.63 144.36 12.79L144.36 12.79L148.99 12.79Q148.99 15.10 147.24 16.39Q145.49 17.69 142.13 17.69L142.13 17.69Q138.60 17.69 136.66 16.04Q134.71 14.40 134.71 11.06L134.71 11.06Q134.71 7.80 136.61 6.12Q138.50 4.44 141.84 4.44L141.84 4.44ZM142.03 7.49Q139.78 7.49 139.51 9.62L139.51 9.62L144.17 9.62Q144.17 8.64 143.60 8.06Q143.04 7.49 142.03 7.49L142.03 7.49Z" transform="translate(36, 9.156)"></path></svg>